<svg xmlns="http://www.w3.org/2000/svg" width="130" height="130" viewBox="0 0 130 130">
  <g id="contrato-icon_gb-green" transform="translate(-134 -1035)">
    <rect id="icon-bg" width="130" height="130" rx="5" transform="translate(134 1035)" fill="#39b54a"/>
    <g id="documents" transform="translate(146.978 1040)">
      <path id="Path_386" data-name="Path 386" d="M249.095,70.182H267.65a2.933,2.933,0,0,0,2.93-2.93V48.618a2.933,2.933,0,0,0-2.93-2.93H249.095a2.933,2.933,0,0,0-2.93,2.93v4.409a1.758,1.758,0,0,0,3.516,0V49.2h17.384V66.667H249.681V61.485a1.758,1.758,0,1,0-3.516,0v5.768A2.933,2.933,0,0,0,249.095,70.182Z" transform="translate(-188.452 -34.98)" fill="#fff"/>
      <path id="Path_387" data-name="Path 387" d="M113.241,126.591h23.947a1.758,1.758,0,0,0,0-3.516H113.241a1.758,1.758,0,0,0,0,3.516Z" transform="translate(-85.337 -94.229)" fill="#fff"/>
      <path id="Path_388" data-name="Path 388" d="M199.538,188.237a1.758,1.758,0,0,0-1.758-1.758H173.616a1.758,1.758,0,1,0,0,3.516h24.165A1.758,1.758,0,0,0,199.538,188.237Z" transform="translate(-131.561 -142.772)" fill="#fff"/>
      <path id="Path_389" data-name="Path 389" d="M113.241,93.958h23.947a1.758,1.758,0,1,0,0-3.516H113.241a1.758,1.758,0,1,0,0,3.516Z" transform="translate(-85.337 -69.244)" fill="#fff"/>
      <path id="Path_390" data-name="Path 390" d="M113.241,61.325h23.947a1.758,1.758,0,1,0,0-3.516H113.241a1.758,1.758,0,1,0,0,3.516Z" transform="translate(-85.337 -44.26)" fill="#fff"/>
      <path id="Path_391" data-name="Path 391" d="M113.241,272.977H149.3a1.758,1.758,0,1,0,0-3.516h-36.06a1.758,1.758,0,1,0,0,3.516Z" transform="translate(-85.337 -206.305)" fill="#fff"/>
      <path id="Path_392" data-name="Path 392" d="M113.241,231.02H141.76a1.758,1.758,0,0,0,0-3.516H113.241a1.758,1.758,0,0,0,0,3.516Z" transform="translate(-85.337 -174.182)" fill="#fff"/>
      <path id="Path_393" data-name="Path 393" d="M283.865,227.5H267.429a1.758,1.758,0,0,0,0,3.516h16.436a1.758,1.758,0,1,0,0-3.516Z" transform="translate(-203.387 -174.182)" fill="#fff"/>
      <path id="Path_394" data-name="Path 394" d="M117.972,108.734c-.021-.021-.043-.041-.066-.061L107.09,99.048a22.935,22.935,0,0,0,2.814-10.24,1.758,1.758,0,1,0-3.514-.125,19.462,19.462,0,1,1-1.112-7.262,1.758,1.758,0,0,0,3.312-1.178A23.011,23.011,0,0,0,89.747,65.136V2.93A2.933,2.933,0,0,0,86.817,0H21.456a2.933,2.933,0,0,0-2.93,2.93V9.288H12.2a2.933,2.933,0,0,0-2.93,2.93v6.358H2.952A2.933,2.933,0,0,0,.022,21.5V109.2a2.933,2.933,0,0,0,2.93,2.93H58.924a2.933,2.933,0,0,0,2.93-2.93v-6.358h7.631a22.89,22.89,0,0,0,28.361,5.4l10.9,9.762a6.542,6.542,0,1,0,9.227-9.268ZM22.042,3.516H86.231V64.981A22.973,22.973,0,0,0,67.914,75.175H60.776a1.758,1.758,0,1,0,0,3.516h5.2q-.353.8-.648,1.64a23.012,23.012,0,0,0-1.3,7.641c0,.7.033,1.383.093,2.063H39.675a12.666,12.666,0,0,0,3.92-9.169V78.691h9.562a1.758,1.758,0,1,0,0-3.516H41.837a1.758,1.758,0,0,0-1.758,1.758v3.933a9.159,9.159,0,0,1-9.127,9.169h-8.91ZM12.79,99.323V75.294a1.758,1.758,0,1,0-3.516,0V99.909a2.933,2.933,0,0,0,2.93,2.93H58.338v5.772H3.538V22.091H9.274V67.864a1.758,1.758,0,0,0,3.516,0V12.8h5.737v78.99a1.758,1.758,0,0,0,1.758,1.758H64.721a22.9,22.9,0,0,0,2.309,5.772H12.79Zm102.873,16.324a3.192,3.192,0,0,1-4.537-.234L100.9,106.257a23.287,23.287,0,0,0,4.244-4.233l10.386,9.242a3.113,3.113,0,0,1,.13,4.381Z" transform="translate(-8)" fill="#fff"/>
      <path id="Path_395" data-name="Path 395" d="M322.077,311.233a15.025,15.025,0,1,0,14.984,15.025A15.071,15.071,0,0,0,322.077,311.233Zm0,26.533a11.509,11.509,0,1,1,11.468-11.509A11.5,11.5,0,0,1,322.077,337.766Z" transform="translate(-235.099 -238.286)" fill="#fff"/>
    </g>
  </g>
</svg>
