<svg xmlns="http://www.w3.org/2000/svg" width="130" height="130" viewBox="0 0 130 130">
  <g id="handshake-icon" transform="translate(-111 -1034)">
    <rect id="icon-bg" width="130" height="130" rx="5" transform="translate(111 1034)" fill="#828282"/>
    <g id="handshake" transform="translate(111.001 960.943)">
      <path id="Path_382" data-name="Path 382" d="M65.025,161.124a6.626,6.626,0,0,0-5.23-1.231,6.639,6.639,0,0,0-7.458-5.489,6.717,6.717,0,0,0-1.265.3,6.633,6.633,0,0,0-8.907-4.269,6.644,6.644,0,0,0-10.936-2.651l-6.97-.463,4.272-34.7,7.655.52q.065,0,.129,0a1.9,1.9,0,0,0,1.694-1.036l2.869-5.6a3.387,3.387,0,0,1,3.9-1.713l4.261,1.178a1.9,1.9,0,0,0,1.015-3.671l-4.26-1.178a7.211,7.211,0,0,0-8.306,3.645l-2.3,4.482-6.2-.421.147-1.192a6.971,6.971,0,0,0-6.06-7.762L8.411,98.072a1.9,1.9,0,0,0-.465,3.78l14.673,1.806a3.154,3.154,0,0,1,2.745,3.517L20.325,148.1a3.16,3.16,0,0,1-3.517,2.746L2.136,149.043a1.9,1.9,0,0,0-.465,3.78l14.673,1.806a6.956,6.956,0,0,0,6.95-3.555l5.214.347A6.643,6.643,0,0,0,34.4,161.1a6.777,6.777,0,0,0,.922-.063l.059-.01c0,.02,0,.039.007.059a6.636,6.636,0,0,0,6.572,5.731,6.7,6.7,0,0,0,.978-.074,6.628,6.628,0,0,0,6.576,5.795,6.7,6.7,0,0,0,.975-.074c0,.021,0,.042.007.063a6.645,6.645,0,0,0,6.566,5.734,6.767,6.767,0,0,0,.922-.063,6.6,6.6,0,0,0,4.386-2.569l3.939-5.2A6.649,6.649,0,0,0,65.025,161.124ZM34.8,157.265a2.833,2.833,0,0,1-2.646-4.517l1.451-1.915a2.833,2.833,0,0,1,4.517,3.421l-1.451,1.915A2.816,2.816,0,0,1,34.8,157.265Zm5.455,5.172a2.833,2.833,0,0,1-.548-3.969l1.451-1.915h0l1.281-1.691a2.833,2.833,0,0,1,4.517,3.421l-2.732,3.607A2.837,2.837,0,0,1,40.258,162.437Zm7.554,5.72a2.833,2.833,0,0,1-.549-3.968h0L50,160.581h0l.991-1.309a2.833,2.833,0,0,1,4.518,3.42l-3.724,4.917h0A2.836,2.836,0,0,1,47.812,168.158Zm15.462-.029-3.939,5.2a2.833,2.833,0,1,1-4.517-3.421l3.723-4.916,0,0,.214-.283a2.833,2.833,0,1,1,4.517,3.421Z" transform="translate(0)" fill="#f5f5f5"/>
      <path id="Path_383" data-name="Path 383" d="M248.374,150.7a1.9,1.9,0,0,0-2.123-1.657l-14.672,1.806a3.157,3.157,0,0,1-3.517-2.746l-.15-1.222h0l-.035-.283-4.853-39.425a3.154,3.154,0,0,1,2.745-3.517l14.673-1.806a1.9,1.9,0,1,0-.465-3.78L225.3,99.878a6.972,6.972,0,0,0-6.109,7.091l-3.7.455-11.458-6.448a9.093,9.093,0,0,0-5.319-1.136l-.011,0-3.449.319a1.9,1.9,0,1,0,.351,3.792l3.458-.32a5.3,5.3,0,0,1,3.1.662l11.879,6.685a1.9,1.9,0,0,0,1.282.3l4.3-.529,3.152,25.6,1.09,8.855-6.855.006a1.9,1.9,0,0,0-1.243.463l-.53.413-17.209-14.832c3.933-1.131,7.682-3.865,11.187-8.17a1.9,1.9,0,0,0-2.953-2.4c-3.918,4.812-8.037,7.288-12.244,7.361-6.128.115-10.632-4.966-10.673-5.014a1.9,1.9,0,0,0-2.951.084l-5.115,6.657a9.909,9.909,0,0,1-11.425,3.251l-.546-.206a1.272,1.272,0,0,1-.65-1.828l13.351-22.98a5.334,5.334,0,0,1,4.113-2.627l7.9-.731a1.9,1.9,0,0,0-.351-3.792l-7.9.731a9.149,9.149,0,0,0-7.056,4.506l-13.351,22.98a5.08,5.08,0,0,0,2.6,7.3l.546.206a13.873,13.873,0,0,0,4.908.9,13.7,13.7,0,0,0,10.883-5.4l3.816-4.967a18.806,18.806,0,0,0,10.731,4.694l24.869,21.434a2.21,2.21,0,0,1,.232,3.116l-.969,1.124a3.389,3.389,0,0,1-4.77.35,1.9,1.9,0,0,0-.249-.179l-6.456-5.567a1.9,1.9,0,1,0-2.487,2.885l5.246,4.524-2.393,2.777a3.374,3.374,0,0,1-4.769.353l-.028-.022-6-5.172a1.9,1.9,0,1,0-2.487,2.885l4.584,3.952-2.407,2.8a3.386,3.386,0,0,1-2.962,1.152,1.9,1.9,0,0,0-.445,3.782,7.192,7.192,0,0,0,6.292-2.449l2.574-2.989a7.186,7.186,0,0,0,8.531-1.8l2.578-2.992a7.207,7.207,0,0,0,8.53-1.8l.97-1.126a6.018,6.018,0,0,0-.631-8.487l-1.563-1.347,5.713,0a6.958,6.958,0,0,0,7.69,5.609l14.673-1.806A1.9,1.9,0,0,0,248.374,150.7Z" transform="translate(-118.39 0)" fill="#f5f5f5"/>
      <path id="Path_384" data-name="Path 384" d="M447.59,251.249a5.586,5.586,0,1,0,5.585,5.585A5.592,5.592,0,0,0,447.59,251.249Zm0,7.363a1.777,1.777,0,1,1,1.777-1.777A1.779,1.779,0,0,1,447.59,258.612Z" transform="translate(-329.778 -114.295)" fill="#f5f5f5"/>
      <path id="Path_385" data-name="Path 385" d="M36.364,256.834a5.585,5.585,0,1,0-5.585,5.586A5.592,5.592,0,0,0,36.364,256.834Zm-7.362,0a1.777,1.777,0,1,1,1.777,1.777A1.779,1.779,0,0,1,29,256.834Z" transform="translate(-18.797 -114.295)" fill="#f5f5f5"/>
    </g>
  </g>
</svg>
