<svg xmlns="http://www.w3.org/2000/svg" width="130" height="130" viewBox="0 0 130 130">
  <g id="inversion-icon_green" transform="translate(-164 -1034)">
    <rect id="icon-bg" width="130" height="130" rx="5" transform="translate(164 1034)" fill="rgba(255,255,255,0)"/>
    <g id="profits" transform="translate(142.962 1039)">
      <g id="Group_32" data-name="Group 32" transform="translate(89.885 30.807)">
        <g id="Group_31" data-name="Group 31">
          <path id="Path_376" data-name="Path 376" d="M298.64,172.152V129.158a2.3,2.3,0,0,0-2.428-2.258h-9.4a2.359,2.359,0,0,0-2.5,2.258v38.794a22.659,22.659,0,0,0-4.613.607V141.83a2.376,2.376,0,0,0-2.476-2.306h-9.4a2.34,2.34,0,0,0-2.452,2.306v36.245a23.829,23.829,0,0,0-4.418,13.935,24.07,24.07,0,1,0,37.678-19.858Zm-9.468-40.4h4.613v37.823a21.631,21.631,0,0,0-4.613-1.262Zm-18.936,12.624h4.613v25.855A24.722,24.722,0,0,0,270.236,173Zm31.341,57.415a19.206,19.206,0,1,1-23.864-27.53,2.307,2.307,0,0,0,.8-.316,18.84,18.84,0,0,1,6.555-1.165c.51,0,1,.024,1.505.073h.024a18.756,18.756,0,0,1,8.254,2.622A19.2,19.2,0,0,1,301.577,201.794Z" transform="translate(-260.962 -126.9)" fill="#39b54a"/>
        </g>
      </g>
      <g id="Group_34" data-name="Group 34" transform="translate(106.102 79.045)">
        <g id="Group_33" data-name="Group 33">
          <path id="Path_377" data-name="Path 377" d="M335.652,340.506a3.071,3.071,0,1,1,3.034-3.083,2.435,2.435,0,0,0,2.428,2.428,2.461,2.461,0,0,0,2.476-2.428,7.929,7.929,0,0,0-5.025-7.38v-2.015a2.428,2.428,0,1,0-4.855,0v1.748a7.919,7.919,0,0,0-5.681,9.638,7.817,7.817,0,0,0,7.6,5.924,3.047,3.047,0,1,1-3.059,3.035,2.435,2.435,0,0,0-2.428-2.428,2.358,2.358,0,0,0-2.379,2.4v.024a7.948,7.948,0,0,0,5.924,7.647v1.092a2.428,2.428,0,1,0,4.855,0v-1.335a7.9,7.9,0,0,0-2.889-15.27Z" transform="translate(-327.761 -325.6)" fill="#39b54a"/>
        </g>
      </g>
      <g id="Group_36" data-name="Group 36" transform="translate(56.189 62.853)">
        <g id="Group_35" data-name="Group 35" transform="translate(0)">
          <path id="Path_378" data-name="Path 378" d="M134.059,258.9h-9.468a2.435,2.435,0,0,0-2.428,2.428v38.114a2.435,2.435,0,0,0,2.428,2.428h9.468a2.435,2.435,0,0,0,2.428-2.428V261.328A2.435,2.435,0,0,0,134.059,258.9Zm-2.428,38.357h-4.613v-33.5h4.613Z" transform="translate(-122.163 -258.9)" fill="#39b54a"/>
        </g>
      </g>
      <g id="Group_38" data-name="Group 38" transform="translate(75.368 57.269)">
        <g id="Group_37" data-name="Group 37">
          <path id="Path_379" data-name="Path 379" d="M213.059,235.9h-9.468a2.435,2.435,0,0,0-2.428,2.428v43.941a2.435,2.435,0,0,0,2.428,2.428h9.468a2.435,2.435,0,0,0,2.428-2.428V238.328A2.435,2.435,0,0,0,213.059,235.9Zm-2.428,43.941h-4.613V240.755h4.613Z" transform="translate(-201.163 -235.9)" fill="#39b54a"/>
        </g>
      </g>
      <g id="Group_40" data-name="Group 40" transform="translate(37.01 83.731)">
        <g id="Group_39" data-name="Group 39" transform="translate(0)">
          <path id="Path_380" data-name="Path 380" d="M55.059,344.9H45.591a2.435,2.435,0,0,0-2.428,2.428v17.237a2.435,2.435,0,0,0,2.428,2.428h9.468a2.435,2.435,0,0,0,2.428-2.428V347.328A2.435,2.435,0,0,0,55.059,344.9Zm-2.428,17.479H48.018V349.755h4.613Z" transform="translate(-43.163 -344.9)" fill="#39b54a"/>
        </g>
      </g>
      <g id="Group_42" data-name="Group 42" transform="translate(35.038)">
        <g id="Group_41" data-name="Group 41" transform="translate(0)">
          <path id="Path_381" data-name="Path 381" d="M127.2,0,110.593.024a2.428,2.428,0,1,0-.049,4.855h.049l10.755-.024L95.008,31.1l-9.2-9.128a2.669,2.669,0,0,0-3.447,0L35.748,68.582a2.421,2.421,0,0,0,3.447,3.4L84.107,27.069l9.2,9.274a2.43,2.43,0,0,0,1.724.777,2.581,2.581,0,0,0,1.724-.777L124.771,8.3l-.024,10.8a2.429,2.429,0,1,0,4.855,0l.024-16.654A2.456,2.456,0,0,0,127.2,0Z" transform="translate(-35.038)" fill="#39b54a"/>
        </g>
      </g>
    </g>
  </g>
</svg>
